<?xml version="1.0" encoding="UTF-8"?>
<svg version="1.1" xmlns="http://www.w3.org/2000/svg" width="195" height="200">
<path d="M0 0 C64.35 0 128.7 0 195 0 C195 66 195 132 195 200 C130.65 200 66.3 200 0 200 C0 134 0 68 0 0 Z " fill="#FCFCFC" transform="translate(0,0)"/>
<path d="M0 0 C43.50538996 -4.23062337 43.50538996 -4.23062337 54.55200195 3.82009888 C60.67989891 9.01540575 65.637224 15.26091303 70.10449219 21.91040039 C71.74863344 24.2136462 71.74863344 24.2136462 73.94433594 24.11083984 C76.74867648 22.59543017 78.62703625 20.67126772 80.84375 18.37890625 C81.76027344 17.44369141 82.67679688 16.50847656 83.62109375 15.54492188 C84.58138825 14.55141788 85.5410174 13.55727037 86.5 12.5625 C88.37927386 10.62007594 90.26581267 8.68555565 92.15625 6.75390625 C93.40631836 5.45948608 93.40631836 5.45948608 94.68164062 4.13891602 C97 2 97 2 101 0 C101 32.34 101 64.68 101 98 C45.89 98 -9.22 98 -66 98 C-59.37524558 90.27111984 -59.37524558 90.27111984 -56.6875 87.75 C-53.83428704 85.23103439 -53.83428704 85.23103439 -53 82 C-53.56589844 81.77570313 -54.13179687 81.55140625 -54.71484375 81.3203125 C-58.57716252 79.08875055 -61.03749218 75.50005147 -63.87890625 72.1171875 C-65.85439265 69.64677262 -65.85439265 69.64677262 -69 70 C-68.0745356 74.96896279 -68.0745356 74.96896279 -62 81 C-70.91 81 -79.82 81 -89 81 C-89 54.6 -89 28.2 -89 1 C-74.81 1 -60.62 1 -46 1 C-44.68 3.97 -43.36 6.94 -42 10 C-38.51157902 15.19008974 -36.20163484 17.18333063 -30.28515625 19.19921875 C-29.29523682 19.54170654 -28.30531738 19.88419434 -27.28540039 20.23706055 C-26.53121826 20.48883057 -25.77703613 20.74060059 -25 21 C-24.9906543 21.74572266 -24.98130859 22.49144531 -24.97167969 23.25976562 C-24.9176397 26.6738215 -24.83405696 30.08655655 -24.75 33.5 C-24.73582031 34.67304688 -24.72164063 35.84609375 -24.70703125 37.0546875 C-24.51711151 43.81583025 -24.27815775 49.54738246 -20 55 C-14.27971222 59.95904849 -8.95990421 60.73847922 -1.59375 60.70703125 C-0.6284436 60.72215256 0.33686279 60.73727386 1.3314209 60.75285339 C4.38785514 60.79553782 7.44329811 60.80454988 10.5 60.8125 C12.58335933 60.83565923 14.66669535 60.86102752 16.75 60.88867188 C21.83342023 60.95133421 26.91622794 60.98381975 32 61 C32.04898438 61.95261719 32.09796875 62.90523437 32.1484375 63.88671875 C32.26058594 65.76810547 32.26058594 65.76810547 32.375 67.6875 C32.47941406 69.54955078 32.47941406 69.54955078 32.5859375 71.44921875 C32.96422094 74.69317772 33.61979976 77.06567185 35 80 C39.10498209 79.91928281 43.20846109 79.80642513 47.3125 79.6875 C48.47974609 79.66494141 49.64699219 79.64238281 50.84960938 79.61914062 C51.96787109 79.58369141 53.08613281 79.54824219 54.23828125 79.51171875 C55.7857605 79.47244263 55.7857605 79.47244263 57.36450195 79.43237305 C60.3490981 78.94272786 61.07936904 78.22905886 63 76 C63.66 76 64.32 76 65 76 C64.93105977 71.37300597 64.84306442 66.74691022 64.73754883 62.12060547 C64.70433628 60.54746478 64.67629283 58.97420599 64.65356445 57.40087891 C64.61994972 55.13653328 64.56763376 52.87326635 64.51171875 50.609375 C64.50213387 49.55759064 64.50213387 49.55759064 64.49235535 48.48455811 C64.40368022 45.52613398 64.1145497 43.24086228 62.83740234 40.55541992 C60.23962299 38.35631651 58.46451057 38.49801141 55.08984375 38.50390625 C53.93548828 38.50326172 52.78113281 38.50261719 51.59179688 38.50195312 C49.78291992 38.53192383 49.78291992 38.53192383 47.9375 38.5625 C46.72771484 38.55541016 45.51792969 38.54832031 44.27148438 38.54101562 C39.61710017 38.5370273 39.61710017 38.5370273 35 39 C32.57520264 42.63719605 32.61337423 44.85703482 32.375 49.1875 C32.30023438 50.45980469 32.22546875 51.73210937 32.1484375 53.04296875 C32.07496094 54.50669922 32.07496094 54.50669922 32 56 C25.86200474 56.14878601 19.72506849 56.25742416 13.58569336 56.32958984 C11.49924424 56.35968519 9.41292083 56.40057226 7.3269043 56.45263672 C4.32048476 56.52577166 1.31574331 56.5595289 -1.69140625 56.5859375 C-2.61772354 56.61690521 -3.54404083 56.64787292 -4.49842834 56.67977905 C-10.35196512 56.68279222 -13.4607252 55.63593239 -17.73350525 51.58486938 C-20.35524023 48.30407607 -20.11724358 45.03493342 -20.09765625 41.01953125 C-20.09282227 39.27446289 -20.09282227 39.27446289 -20.08789062 37.49414062 C-20.07532227 35.67172852 -20.07532227 35.67172852 -20.0625 33.8125 C-20.05798828 32.58595703 -20.05347656 31.35941406 -20.04882812 30.09570312 C-20.03703065 27.06375332 -20.02056921 24.03190094 -20 21 C-19.31147949 20.73735352 -18.62295898 20.47470703 -17.91357422 20.20410156 C-17.0113916 19.8531543 -16.10920898 19.50220703 -15.1796875 19.140625 C-14.28491699 18.79547852 -13.39014648 18.45033203 -12.46826172 18.09472656 C-6.27562545 15.34816068 -3.43976827 10.01570313 -1 4 C-0.65540944 2.66953157 -0.32051692 1.33647214 0 0 Z " fill="#FCFCFC" transform="translate(94,102)"/>
<path d="M0 0 C28 0 28 0 35.75 5.6875 C38.26638522 8.77270882 39.81053089 10.80344286 40.43359375 14.73828125 C39.84203737 17.82396725 38.09500203 18.91955249 35.6484375 20.734375 C33.73922525 22.12810093 33.73922525 22.12810093 31.4375 24.75 C28.84283766 27.14507293 27.46217952 27.70324176 24 28 C25 24 25 24 31 18 C18.13 17.505 18.13 17.505 5 17 C5 43.4 5 69.8 5 97 C19.19 97 33.38 97 48 97 C48.33 94.69 48.66 92.38 49 90 C50.93513497 86.94644025 53.42945022 84.53201906 56 82 C56.804375 81.195625 57.60875 80.39125 58.4375 79.5625 C61.9567253 77.41663091 64.91070292 77.42848179 69 77 C68.9685791 75.88141602 68.9685791 75.88141602 68.93652344 74.74023438 C68.85283366 71.32696275 68.80117206 67.91390776 68.75 64.5 C68.71648437 63.32695313 68.68296875 62.15390625 68.6484375 60.9453125 C68.54936373 52.12774711 69.71226055 46.96214754 75.4375 40.0625 C80.4866746 35.9985302 86.69688071 36.86737542 92.89453125 36.90234375 C93.84188644 36.9037587 94.78924164 36.90517365 95.76530457 36.90663147 C98.78106895 36.91221389 101.79675818 36.92476318 104.8125 36.9375 C106.86132705 36.94251727 108.91015527 36.94707978 110.95898438 36.95117188 C115.97268506 36.96217757 120.9863298 36.97943012 126 37 C125.95359375 35.96359375 125.9071875 34.9271875 125.859375 33.859375 C125.82184725 32.48961221 125.78544816 31.11981818 125.75 29.75 C125.71648437 29.06808594 125.68296875 28.38617187 125.6484375 27.68359375 C125.58344559 24.33651061 125.76392259 22.34897191 127.65820312 19.54882812 C130.5508851 17.63565314 132.26504835 17.48431723 135.71875 17.46875 C137.36423828 17.46101563 137.36423828 17.46101563 139.04296875 17.453125 C140.18378906 17.46859375 141.32460937 17.4840625 142.5 17.5 C144.21123047 17.47679687 144.21123047 17.47679687 145.95703125 17.453125 C147.05402344 17.45828125 148.15101563 17.4634375 149.28125 17.46875 C150.78268555 17.47551758 150.78268555 17.47551758 152.31445312 17.48242188 C155.83653413 18.16122294 156.96622355 19.04918711 159 22 C159.39859861 24.62153796 159.5621671 26.81608029 159.53125 29.43359375 C159.5350769 30.14854507 159.53890381 30.8634964 159.54284668 31.60011292 C159.54556259 33.10882987 159.53822364 34.61759417 159.52148438 36.1262207 C159.50009741 38.42702095 159.52127608 40.72468813 159.546875 43.02539062 C159.54423105 44.49479852 159.53910466 45.96420447 159.53125 47.43359375 C159.53934692 48.11707382 159.54744385 48.80055389 159.55578613 49.50474548 C159.48993851 52.88572135 159.01388978 54.97545234 157.34008789 57.93359375 C154.39289897 60.5360984 152.92163836 60.63159754 149.02734375 60.62890625 C147.30741211 60.63180664 147.30741211 60.63180664 145.55273438 60.63476562 C143.76319336 60.59899414 143.76319336 60.59899414 141.9375 60.5625 C140.74060547 60.57345703 139.54371094 60.58441406 138.31054688 60.59570312 C129.6117246 60.52227469 129.6117246 60.52227469 127.14672852 58.41772461 C125.56845114 55.0901366 125.71072747 52.4138111 125.8125 48.75 C125.85310547 46.85507813 125.85310547 46.85507813 125.89453125 44.921875 C125.92933594 43.95765625 125.96414062 42.9934375 126 42 C119.84294322 42.01943852 113.68731205 42.07121318 107.53076172 42.15258789 C105.43774183 42.17574291 103.34460584 42.19015773 101.25146484 42.19555664 C98.23722184 42.20486428 95.22479869 42.24589529 92.2109375 42.29296875 C90.81371964 42.28706978 90.81371964 42.28706978 89.38827515 42.28105164 C84.97262556 42.37956496 81.9329422 42.58198344 78.42431641 45.41918945 C74.91187303 49.15836759 74.84855127 51.05857537 74.68359375 56.1015625 C74.64169922 57.31328125 74.59980469 58.525 74.55664062 59.7734375 C74.51732422 61.04445312 74.47800781 62.31546875 74.4375 63.625 C74.37272461 65.543125 74.37272461 65.543125 74.30664062 67.5 C74.20030114 70.66655348 74.09827167 73.83318753 74 77 C74.94472168 77.14405273 75.88944336 77.28810547 76.86279297 77.43652344 C82.43127932 78.43668425 86.5706422 81.45779816 90.375 85.5625 C93.39363708 90.09045562 94.08990136 92.49354195 94 98 C123.76362944 101.487047 123.76362944 101.487047 150.390625 91.5546875 C155.66883233 86.6857024 160.09097814 81.01018824 164.10449219 75.07373047 C166 73 166 73 167.94433594 72.89355469 C170.7421372 74.39944962 172.62560957 76.30904123 174.84375 78.5859375 C175.76027344 79.51664062 176.67679688 80.44734375 177.62109375 81.40625 C178.58115319 82.39542197 179.54078468 83.38500945 180.5 84.375 C182.38174322 86.30313541 184.26849549 88.22616708 186.15625 90.1484375 C186.98962891 91.00614746 187.82300781 91.86385742 188.68164062 92.74755859 C190.69671082 94.70533425 192.70797755 96.38384723 195 98 C194.52286122 102.44816476 193.29437838 104.06501579 189.875 106.875 C186.46091632 109.7759844 183.24804053 112.72324974 180.140625 115.953125 C179.47691895 116.64035645 178.81321289 117.32758789 178.12939453 118.03564453 C176.803111 119.41814569 175.486171 120.80967721 174.17919922 122.21044922 C173.5657666 122.8448291 172.95233398 123.47920898 172.3203125 124.1328125 C171.77648926 124.70918457 171.23266602 125.28555664 170.67236328 125.87939453 C169 127 169 127 167.02587891 126.99755859 C164.13015986 125.57168392 163.05448325 123.57913177 161.265625 120.90625 C154.50242545 111.95555296 147.86127661 103.68605599 136.21728516 101.81689453 C122.24024045 100.30671307 107.99596071 101.01960012 94 102 C93.85755859 103.1039209 93.71511719 104.2078418 93.56835938 105.34521484 C92.62777232 111.3935775 89.66478924 116.01293397 84.7421875 119.68359375 C80.8126683 121.97257111 78.64322527 123 74 123 C74.08100939 127.22994309 74.19384505 131.45845865 74.3125 135.6875 C74.33505859 136.88568359 74.35761719 138.08386719 74.38085938 139.31835938 C74.4340332 141.05375977 74.4340332 141.05375977 74.48828125 142.82421875 C74.51446533 143.88729248 74.54064941 144.95036621 74.56762695 146.0456543 C75.17935651 150.22551841 76.66949863 152.82227204 79.82655334 155.61682129 C82.2921272 157.18590938 83.60000018 157.3908046 86.49316406 157.43237305 C87.81408051 157.46206429 87.81408051 157.46206429 89.16168213 157.49235535 C90.10348328 157.49874527 91.04528442 157.50513519 92.015625 157.51171875 C92.98659119 157.52966995 93.95755737 157.54762115 94.95794678 157.56611633 C98.05525385 157.62024273 101.1524066 157.65412283 104.25 157.6875 C106.35158398 157.72067098 108.4531476 157.75516043 110.5546875 157.79101562 C115.70301371 157.87597073 120.85129395 157.94277108 126 158 C125.96519531 157.03578125 125.93039063 156.0715625 125.89453125 155.078125 C125.86746094 153.81484375 125.84039062 152.5515625 125.8125 151.25 C125.76029297 149.37054688 125.76029297 149.37054688 125.70703125 147.453125 C126.01697935 143.79987009 126.22381943 142.37023136 129 140 C133.26074208 139.14675818 137.60137891 139.39780476 141.9375 139.4375 C143.13052734 139.41365234 144.32355469 139.38980469 145.55273438 139.36523438 C146.69935547 139.36716797 147.84597656 139.36910156 149.02734375 139.37109375 C150.60116821 139.3700061 150.60116821 139.3700061 152.20678711 139.36889648 C155 140 155 140 157.34887695 142.05761719 C159.388607 145.69251686 159.51082616 148.654581 159.390625 152.70703125 C159.38496521 153.43242599 159.37930542 154.15782074 159.37347412 154.90519714 C159.35119099 157.20832008 159.30101487 159.50985224 159.25 161.8125 C159.22992434 163.37953472 159.21167543 164.94659399 159.1953125 166.51367188 C159.15135337 170.34305519 159.08238623 174.17125846 159 178 C158.34 178 157.68 178 157 178 C156.67 178.99 156.34 179.98 156 181 C151.75620557 183.12189721 146.22531745 182.31810483 141.5625 182.375 C140.40427734 182.41238281 139.24605469 182.44976562 138.05273438 182.48828125 C136.94349609 182.49988281 135.83425781 182.51148438 134.69140625 182.5234375 C133.67248291 182.54325684 132.65355957 182.56307617 131.60375977 182.58349609 C129 182 129 182 127.15600586 179.92431641 C125.73451726 176.32841558 125.70438185 173.54371396 125.8125 169.6875 C125.83957031 168.43324219 125.86664063 167.17898437 125.89453125 165.88671875 C125.92933594 164.93410156 125.96414062 163.98148438 126 163 C124.06350586 163.03927612 124.06350586 163.03927612 122.08789062 163.0793457 C117.27231353 163.17023187 112.4568114 163.22738879 107.640625 163.2746582 C105.56106798 163.29971505 103.48159826 163.33377021 101.40234375 163.37719727 C98.40342606 163.43823845 95.40567822 163.46629842 92.40625 163.48828125 C91.02451599 163.52699089 91.02451599 163.52699089 89.61486816 163.56648254 C83.22292606 163.56922471 78.90828194 162.18080246 74 158 C70.05827269 152.94650345 68.87148066 149.3464648 68.90234375 143.01953125 C68.90717773 141.27446289 68.90717773 141.27446289 68.91210938 139.49414062 C68.92467773 137.67172852 68.92467773 137.67172852 68.9375 135.8125 C68.94201172 134.58595703 68.94652344 133.35941406 68.95117188 132.09570312 C68.96296935 129.06375332 68.97943079 126.03190094 69 123 C68.40034424 122.89187988 67.80068848 122.78375977 67.18286133 122.67236328 C60.41503784 121.33454567 56.55130295 119.28074428 52 114 C49.63491655 110.36243503 48 107.37975747 48 103 C33.81 103 19.62 103 5 103 C5 129.4 5 155.8 5 183 C13.58 182.67 22.16 182.34 31 182 C27.535 178.535 27.535 178.535 24 175 C24.33 173.68 24.66 172.36 25 171 C28.46757778 171.57666501 30.0466356 172.71005167 32.4375 175.25 C34.5619093 177.49370658 36.69759354 179.6288023 39 181.6875 C41 184 41 184 40.89453125 185.75390625 C38.12013106 192.72019493 34.15394037 195.39705273 28 200 C18.76 200 9.52 200 0 200 C0 134 0 68 0 0 Z " fill="#161616" transform="translate(0,0)"/>
<path d="M0 0 C1.64548828 -0.00773437 1.64548828 -0.00773437 3.32421875 -0.015625 C4.46503906 -0.00015625 5.60585937 0.0153125 6.78125 0.03125 C8.49248047 0.00804688 8.49248047 0.00804688 10.23828125 -0.015625 C11.33527344 -0.01046875 12.43226563 -0.0053125 13.5625 0 C15.06393555 0.00676758 15.06393555 0.00676758 16.59570312 0.01367188 C20.11778413 0.69247294 21.24747355 1.58043711 23.28125 4.53125 C23.67984861 7.15278796 23.8434171 9.34733029 23.8125 11.96484375 C23.81824036 13.03727074 23.81824036 13.03727074 23.82409668 14.13136292 C23.82681259 15.64007987 23.81947364 17.14884417 23.80273438 18.6574707 C23.78134741 20.95827095 23.80252608 23.25593813 23.828125 25.55664062 C23.82548105 27.02604852 23.82035466 28.49545447 23.8125 29.96484375 C23.82059692 30.64832382 23.82869385 31.33180389 23.83703613 32.03599548 C23.77118851 35.41697135 23.29513978 37.50670234 21.62133789 40.46484375 C18.67414897 43.0673484 17.20288836 43.16284754 13.30859375 43.16015625 C11.58866211 43.16305664 11.58866211 43.16305664 9.83398438 43.16601562 C8.04444336 43.13024414 8.04444336 43.13024414 6.21875 43.09375 C5.02185547 43.10470703 3.82496094 43.11566406 2.59179688 43.12695312 C-6.1070254 43.05352469 -6.1070254 43.05352469 -8.57202148 40.94897461 C-10.15029886 37.6213866 -10.00802253 34.9450611 -9.90625 31.28125 C-9.86564453 29.38632812 -9.86564453 29.38632812 -9.82421875 27.453125 C-9.78941406 26.48890625 -9.75460938 25.5246875 -9.71875 24.53125 C-15.87580678 24.55068852 -22.03143795 24.60246318 -28.18798828 24.68383789 C-30.28100817 24.70699291 -32.37414416 24.72140773 -34.46728516 24.72680664 C-37.48152816 24.73611428 -40.49395131 24.77714529 -43.5078125 24.82421875 C-44.90503036 24.81831978 -44.90503036 24.81831978 -46.33047485 24.81230164 C-50.74612444 24.91081496 -53.7858078 25.11323344 -57.29443359 27.95043945 C-60.80687697 31.68961759 -60.87019873 33.58982537 -61.03515625 38.6328125 C-61.07705078 39.84453125 -61.11894531 41.05625 -61.16210938 42.3046875 C-61.20142578 43.57570312 -61.24074219 44.84671875 -61.28125 46.15625 C-61.32443359 47.435 -61.36761719 48.71375 -61.41210938 50.03125 C-61.51844886 53.19780348 -61.62047833 56.36443753 -61.71875 59.53125 C-60.77402832 59.67530273 -59.82930664 59.81935547 -58.85595703 59.96777344 C-53.28747068 60.96793425 -49.1481078 63.98904816 -45.34375 68.09375 C-41.58541667 73.73125 -41.58541667 73.73125 -42.09375 76.78125 C-42.3 77.35875 -42.50625 77.93625 -42.71875 78.53125 C-42.71875 77.54125 -42.71875 76.55125 -42.71875 75.53125 C-43.70875 75.53125 -44.69875 75.53125 -45.71875 75.53125 C-45.67234375 76.2325 -45.6259375 76.93375 -45.578125 77.65625 C-45.29586657 85.07561447 -46.03760046 90.48702817 -51.14453125 96.09765625 C-56.36881856 100.83596335 -62.22847246 100.95307032 -68.99609375 100.87109375 C-74.77195828 100.15014653 -77.61202981 96.92921234 -81.09375 92.53125 C-83.42267389 88.07160851 -83.34621625 83.16223953 -83.54296875 78.2265625 C-83.41576887 75.61436783 -83.41576887 75.61436783 -84.71875 74.53125 C-85.37875 76.18125 -86.03875 77.83125 -86.71875 79.53125 C-87.89474358 76.75162882 -87.74464629 75.60408331 -86.71875 72.71875 C-83.00250772 66.79598886 -78.38453784 61.99469333 -71.71875 59.53125 C-70.05259486 59.48996044 -68.38473452 59.48357031 -66.71875 59.53125 C-66.73969727 58.78552734 -66.76064453 58.03980469 -66.78222656 57.27148438 C-66.86591634 53.85821275 -66.91757794 50.44515776 -66.96875 47.03125 C-67.01902344 45.27167969 -67.01902344 45.27167969 -67.0703125 43.4765625 C-67.16938627 34.65899711 -66.00648945 29.49339754 -60.28125 22.59375 C-55.2320754 18.5297802 -49.02186929 19.39862542 -42.82421875 19.43359375 C-41.87686356 19.4350087 -40.92950836 19.43642365 -39.95344543 19.43788147 C-36.93768105 19.44346389 -33.92199182 19.45601318 -30.90625 19.46875 C-28.85742295 19.47376727 -26.80859473 19.47832978 -24.75976562 19.48242188 C-19.74606494 19.49342757 -14.7324202 19.51068012 -9.71875 19.53125 C-9.76515625 18.49484375 -9.8115625 17.4584375 -9.859375 16.390625 C-9.89690275 15.02086221 -9.93330184 13.65106818 -9.96875 12.28125 C-10.00226563 11.59933594 -10.03578125 10.91742188 -10.0703125 10.21484375 C-10.13530441 6.86776061 -9.95482741 4.88022191 -8.06054688 2.08007812 C-5.1678649 0.16690314 -3.45370165 0.01556723 0 0 Z " fill="#0D0D0D" transform="translate(135.71875,17.46875)"/>
<path d="M0 0 C0.33 0 0.66 0 1 0 C1.01458252 0.76143311 1.02916504 1.52286621 1.04418945 2.30737305 C1.11880541 5.76791888 1.21542259 9.22751445 1.3125 12.6875 C1.33505859 13.88568359 1.35761719 15.08386719 1.38085938 16.31835938 C1.41630859 17.47529297 1.45175781 18.63222656 1.48828125 19.82421875 C1.51446533 20.88729248 1.54064941 21.95036621 1.56762695 23.0456543 C2.17935651 27.22551841 3.66949863 29.82227204 6.82655334 32.61682129 C9.2921272 34.18590938 10.60000018 34.3908046 13.49316406 34.43237305 C14.37377502 34.45216721 15.25438599 34.47196136 16.16168213 34.49235535 C17.10348328 34.49874527 18.04528442 34.50513519 19.015625 34.51171875 C19.98659119 34.52966995 20.95755737 34.54762115 21.95794678 34.56611633 C25.05525385 34.62024273 28.1524066 34.65412283 31.25 34.6875 C33.35158398 34.72067098 35.4531476 34.75516043 37.5546875 34.79101562 C42.70301371 34.87597073 47.85129395 34.94277108 53 35 C52.96519531 34.03578125 52.93039063 33.0715625 52.89453125 32.078125 C52.86746094 30.81484375 52.84039062 29.5515625 52.8125 28.25 C52.77769531 26.99703125 52.74289063 25.7440625 52.70703125 24.453125 C53.01697935 20.79987009 53.22381943 19.37023136 56 17 C60.26074208 16.14675818 64.60137891 16.39780476 68.9375 16.4375 C70.13052734 16.41365234 71.32355469 16.38980469 72.55273438 16.36523438 C73.69935547 16.36716797 74.84597656 16.36910156 76.02734375 16.37109375 C77.60116821 16.3700061 77.60116821 16.3700061 79.20678711 16.36889648 C82 17 82 17 84.34887695 19.05761719 C86.388607 22.69251686 86.51082616 25.654581 86.390625 29.70703125 C86.38496521 30.43242599 86.37930542 31.15782074 86.37347412 31.90519714 C86.35119099 34.20832008 86.30101487 36.50985224 86.25 38.8125 C86.22992434 40.37953472 86.21167543 41.94659399 86.1953125 43.51367188 C86.15135337 47.34305519 86.08238623 51.17125846 86 55 C85.34 55 84.68 55 84 55 C83.67 55.99 83.34 56.98 83 58 C78.75620557 60.12189721 73.22531745 59.31810483 68.5625 59.375 C67.40427734 59.41238281 66.24605469 59.44976562 65.05273438 59.48828125 C63.94349609 59.49988281 62.83425781 59.51148438 61.69140625 59.5234375 C60.67248291 59.54325684 59.65355957 59.56307617 58.60375977 59.58349609 C56 59 56 59 54.15600586 56.92431641 C52.73451726 53.32841558 52.70438185 50.54371396 52.8125 46.6875 C52.85310547 44.80611328 52.85310547 44.80611328 52.89453125 42.88671875 C52.92933594 41.93410156 52.96414062 40.98148438 53 40 C51.06350586 40.03927612 51.06350586 40.03927612 49.08789062 40.0793457 C44.27231353 40.17023187 39.4568114 40.22738879 34.640625 40.2746582 C32.56106798 40.29971505 30.48159826 40.33377021 28.40234375 40.37719727 C25.40342606 40.43823845 22.40567822 40.46629842 19.40625 40.48828125 C18.02451599 40.52699089 18.02451599 40.52699089 16.61486816 40.56648254 C10.22292606 40.56922471 5.90828194 39.18080246 1 35 C-2.59512166 30.39086966 -4.13283128 26.91716129 -4.09765625 21.11328125 C-4.09443359 20.17548828 -4.09121094 19.23769531 -4.08789062 18.27148438 C-4.07532227 16.80678711 -4.07532227 16.80678711 -4.0625 15.3125 C-4.05798828 14.32443359 -4.05347656 13.33636719 -4.04882812 12.31835938 C-4.03704303 9.87884526 -4.02059011 7.43945311 -4 5 C-3.67 5 -3.34 5 -3 5 C-2.67 10.28 -2.34 15.56 -2 21 C-1.34 21 -0.68 21 0 21 C0 14.07 0 7.14 0 0 Z " fill="#1C1C1C" transform="translate(73,123)"/>
<path d="M0 0 C5.76961567 2.51848303 10.15432323 6.33405275 13.1875 11.86328125 C15.22314038 17.21662399 14.67784329 22.08074839 12.375 27.25 C10.16275698 31.16637369 7.72899378 33.48863684 4 36 C-1.71580339 37.46923636 -8.54906329 38.41203465 -14.12890625 36.12890625 C-18.28952512 33.3881098 -21.55437129 29.83010062 -23 25 C-23.77940634 19.17651112 -24.31056037 13.11734078 -21 8 C-15.26819908 1.56175863 -8.69188618 -1.87023557 0 0 Z " fill="#F9F9F9" transform="translate(76,81)"/>
<path d="M0 0 C5.57702466 3.34269617 9.84707713 7.61563409 14.375 12.25 C15.11105469 12.99507812 15.84710938 13.74015625 16.60546875 14.5078125 C18.40830047 16.33405762 20.20626978 18.16482205 22 20 C20.6489735 23.01015294 19.13664313 25.11967466 16.8125 27.453125 C16.19632813 28.071875 15.58015625 28.690625 14.9453125 29.328125 C14.30335938 29.96234375 13.66140625 30.5965625 13 31.25 C12.03707031 32.22453125 12.03707031 32.22453125 11.0546875 33.21875 C10.43851563 33.83234375 9.82234375 34.4459375 9.1875 35.078125 C8.34251953 35.91972168 8.34251953 35.91972168 7.48046875 36.77832031 C6 38 6 38 4 38 C4 38.66 4 39.32 4 40 C2.68 40.66 1.36 41.32 0 42 C-3.53076236 39.13061964 -6.88779062 36.30369115 -9.75 32.75 C-11.88779286 29.86340001 -11.88779286 29.86340001 -15 28 C-15 27.34 -15 26.68 -15 26 C-15.61875 25.7525 -16.2375 25.505 -16.875 25.25 C-19.35068687 23.79371361 -19.95125002 22.62187494 -21 20 C-20.278125 19.46375 -19.55625 18.9275 -18.8125 18.375 C-15.79145155 15.82389242 -13.49754442 13.05949191 -11 10 C-7.54142755 6.36406486 -3.88469 3.16195698 0 0 Z " fill="#F5F5F5" transform="translate(167,79)"/>
<path d="M0 0 C2.79780127 1.50589493 4.68127364 3.41548654 6.89941406 5.69238281 C7.8159375 6.62308594 8.73246094 7.55378906 9.67675781 8.51269531 C10.63681725 9.50186728 11.59644875 10.49145477 12.55566406 11.48144531 C14.43740729 13.40958072 16.32415955 15.3326124 18.21191406 17.25488281 C19.04529297 18.11259277 19.87867188 18.97030273 20.73730469 19.85400391 C22.75237489 21.81177956 24.76364161 23.49029254 27.05566406 25.10644531 C26.57852528 29.55461007 25.35004244 31.1714611 21.93066406 33.98144531 C18.51658038 36.88242971 15.30370459 39.82969506 12.19628906 43.05957031 C11.53258301 43.74680176 10.86887695 44.4340332 10.18505859 45.14208984 C8.85877506 46.524591 7.54183506 47.91612252 6.23486328 49.31689453 C5.62143066 49.95127441 5.00799805 50.5856543 4.37597656 51.23925781 C3.83215332 51.81562988 3.28833008 52.39200195 2.72802734 52.98583984 C1.05566406 54.10644531 1.05566406 54.10644531 -0.92724609 54.10620117 C-3.81702109 52.67390529 -4.80993008 50.68518052 -6.53808594 47.97753906 C-12.4311942 39.92623247 -18.66276539 31.72551063 -28.89080811 29.45129395 C-45.04470492 27.30094251 -61.76809907 28.76716004 -77.94433594 30.10644531 C-78.27433594 26.80644531 -78.60433594 23.50644531 -78.94433594 20.10644531 C-78.28433594 19.77644531 -77.62433594 19.44644531 -76.94433594 19.10644531 C-76.28433594 19.43644531 -75.62433594 19.76644531 -74.94433594 20.10644531 C-74.31933594 22.66894531 -74.31933594 22.66894531 -73.94433594 25.10644531 C-44.18070649 28.59349232 -44.18070649 28.59349232 -17.55371094 18.66113281 C-12.2755036 13.79214772 -7.8533578 8.11663355 -3.83984375 2.18017578 C-1.94433594 0.10644531 -1.94433594 0.10644531 0 0 Z M-0.94433594 6.10644531 C-5.9630179 10.31519589 -10.89628894 14.48238509 -14.94433594 19.66894531 C-17.04902493 22.23403503 -19.29661589 24.12065528 -21.94433594 26.10644531 C-20.5369153 29.6249969 -19.27967071 30.49257365 -15.94433594 32.10644531 C-15.61433594 33.09644531 -15.28433594 34.08644531 -14.94433594 35.10644531 C-13.51974817 36.29912344 -12.0908169 37.48734494 -10.63183594 38.63769531 C-8.22549828 40.73210031 -6.31074872 43.15451727 -4.33886719 45.65332031 C-2.89784849 47.38056275 -2.89784849 47.38056275 0.05566406 48.10644531 C1.04566406 47.44644531 2.03566406 46.78644531 3.05566406 46.10644531 C3.05566406 45.44644531 3.05566406 44.78644531 3.05566406 44.10644531 C3.64444336 43.8436377 4.23322266 43.58083008 4.83984375 43.31005859 C7.15905648 42.0502835 8.66515809 40.7264051 10.50878906 38.84863281 C11.12753906 38.2234375 11.74628906 37.59824219 12.38378906 36.95410156 C13.01800781 36.303125 13.65222656 35.65214844 14.30566406 34.98144531 C14.95535156 34.32273437 15.60503906 33.66402344 16.27441406 32.98535156 C17.87278134 31.36347889 19.46628304 29.73711721 21.05566406 28.10644531 C19.64555414 24.91355988 17.95882457 22.75272095 15.50097656 20.28613281 C14.80359375 19.58617187 14.10621094 18.88621094 13.38769531 18.16503906 C12.659375 17.44445312 11.93105469 16.72386719 11.18066406 15.98144531 C10.46007812 15.253125 9.73949219 14.52480469 8.99707031 13.77441406 C8.29710937 13.07703125 7.59714844 12.37964844 6.87597656 11.66113281 C6.23934082 11.02675293 5.60270508 10.39237305 4.94677734 9.73876953 C3.06842589 8.11746075 1.31674705 7.10503284 -0.94433594 6.10644531 Z " fill="#101010" transform="translate(167.9443359375,72.8935546875)"/>
<path d="M0 0 C1.40958984 -0.00193359 1.40958984 -0.00193359 2.84765625 -0.00390625 C3.83636719 -0.00003906 4.82507813 0.00382813 5.84375 0.0078125 C7.32681641 0.00201172 7.32681641 0.00201172 8.83984375 -0.00390625 C9.77957031 -0.00261719 10.71929687 -0.00132812 11.6875 0 C12.55568359 0.00112793 13.42386719 0.00225586 14.31835938 0.00341797 C16.34375 0.1328125 16.34375 0.1328125 17.34375 1.1328125 C17.4321467 3.5084977 17.45905305 5.85489924 17.44140625 8.23046875 C17.4399913 8.93932724 17.43857635 9.64818573 17.43711853 10.37852478 C17.43150443 12.65082962 17.41894963 14.92303725 17.40625 17.1953125 C17.40123681 18.73242046 17.39667359 20.26952995 17.39257812 21.80664062 C17.3823797 25.58209917 17.36280732 29.35734654 17.34375 33.1328125 C9.75375 33.1328125 2.16375 33.1328125 -5.65625 33.1328125 C-5.67916161 28.59376884 -5.69908781 24.05492448 -5.71118164 19.51586914 C-5.7162214 17.97061484 -5.7230532 16.42536534 -5.73168945 14.88012695 C-5.74377076 12.66356221 -5.74948173 10.44706032 -5.75390625 8.23046875 C-5.75906754 7.5356691 -5.76422882 6.84086945 -5.76954651 6.12501526 C-5.76974277 4.4605192 -5.71814129 2.79615751 -5.65625 1.1328125 C-4.03424485 -0.48919265 -2.23601969 0.002905 0 0 Z " fill="#F7F7F7" transform="translate(136.65625,143.8671875)"/>
<path d="M0 0 C7.59 0 15.18 0 23 0 C23.02291161 4.53904366 23.04283781 9.07788802 23.05493164 13.61694336 C23.0599714 15.16219766 23.0668032 16.70744716 23.07543945 18.25268555 C23.08752076 20.46925029 23.09323173 22.68575218 23.09765625 24.90234375 C23.10281754 25.5971434 23.10797882 26.29194305 23.11329651 27.00779724 C23.11349277 28.6722933 23.06189129 30.33665499 23 32 C21.37799485 33.62200515 19.57976969 33.1299075 17.34375 33.1328125 C15.93416016 33.13474609 15.93416016 33.13474609 14.49609375 33.13671875 C13.50738281 33.13285156 12.51867187 33.12898438 11.5 33.125 C10.51128906 33.12886719 9.52257812 33.13273437 8.50390625 33.13671875 C7.56417969 33.13542969 6.62445313 33.13414063 5.65625 33.1328125 C4.78806641 33.13168457 3.91988281 33.13055664 3.02539062 33.12939453 C1 33 1 33 0 32 C-0.0883967 29.6243148 -0.11530305 27.27791326 -0.09765625 24.90234375 C-0.0962413 24.19348526 -0.09482635 23.48462677 -0.09336853 22.75428772 C-0.08775443 20.48198288 -0.07519963 18.20977525 -0.0625 15.9375 C-0.05748681 14.40039204 -0.05292359 12.86328255 -0.04882812 11.32617188 C-0.0386297 7.55071333 -0.01905732 3.77546596 0 0 Z " fill="#F7F7F7" transform="translate(131,23)"/>
<path d="M0 0 C0 0.99 0 1.98 0 3 C12.54 3 25.08 3 38 3 C38 3.33 38 3.66 38 4 C36.69853027 4.00410889 35.39706055 4.00821777 34.05615234 4.01245117 C29.21395609 4.03427103 24.3725691 4.08859091 19.53076172 4.15258789 C17.43774183 4.17574291 15.34460584 4.19015773 13.25146484 4.19555664 C10.23722184 4.20486428 7.22479869 4.24589529 4.2109375 4.29296875 C2.81371964 4.28706978 2.81371964 4.28706978 1.38827515 4.28105164 C-3.02737444 4.37956496 -6.0670578 4.58198344 -9.57568359 7.41918945 C-13.08812697 11.15836759 -13.15144873 13.05857537 -13.31640625 18.1015625 C-13.35830078 19.31328125 -13.40019531 20.525 -13.44335938 21.7734375 C-13.48267578 23.04445313 -13.52199219 24.31546875 -13.5625 25.625 C-13.60568359 26.90375 -13.64886719 28.1825 -13.69335938 29.5 C-13.79969886 32.66655348 -13.90172833 35.83318753 -14 39 C-13.05527832 39.14405273 -12.11055664 39.28810547 -11.13720703 39.43652344 C-5.56872068 40.43668425 -1.4293578 43.45779816 2.375 47.5625 C6.13333333 53.2 6.13333333 53.2 5.625 56.25 C5.41875 56.8275 5.2125 57.405 5 58 C5 57.01 5 56.02 5 55 C4.2575 55.12375 3.515 55.2475 2.75 55.375 C1.38875 55.189375 1.38875 55.189375 0 55 C-1.3440093 53.00715862 -2.67541292 51.00580329 -4 49 C-7.87073571 45.50821744 -11.71626687 43.66166489 -16.9375 43.3125 C-22.71238106 43.61550302 -26.7717092 46.19097011 -31 50 C-33.05011189 52.64999381 -33.05011189 52.64999381 -34 55 C-34.99 54.67 -35.98 54.34 -37 54 C-37.99 56.475 -37.99 56.475 -39 59 C-40.17599358 56.22037882 -40.02589629 55.07283331 -39 52.1875 C-35.28375772 46.26473886 -30.66578784 41.46344333 -24 39 C-22.33384486 38.95871044 -20.66598452 38.95232031 -19 39 C-19.02094727 38.25427734 -19.04189453 37.50855469 -19.06347656 36.74023438 C-19.14716634 33.32696275 -19.19882794 29.91390776 -19.25 26.5 C-19.30027344 24.74042969 -19.30027344 24.74042969 -19.3515625 22.9453125 C-19.45123104 14.07481258 -18.0186109 9.26156832 -12.875 2 C-8.69446154 -0.90820067 -4.94026266 -0.43167344 0 0 Z " fill="#171717" transform="translate(88,38)"/>
<path d="M0 0 C8.25 0 16.5 0 25 0 C25.33 1.65 25.66 3.3 26 5 C27.98 7.31 29.96 9.62 32 12 C16.16 12.495 16.16 12.495 0 13 C0 8.71 0 4.42 0 0 Z " fill="#F8F8F8" transform="translate(0,0)"/>
<path d="M0 0 C10.56 0 21.12 0 32 0 C30.02 2.31 28.04 4.62 26 7 C25.34 8.65 24.68 10.3 24 12 C16.08 12 8.16 12 0 12 C0 8.04 0 4.08 0 0 Z " fill="#F9F9F9" transform="translate(0,188)"/>
<path d="M0 0 C0.99 0.33 1.98 0.66 3 1 C3.33 2.65 3.66 4.3 4 6 C10.74490907 5.98371587 17.48871996 5.92890274 24.2331543 5.84741211 C26.52702717 5.82422858 28.82100655 5.80983559 31.11499023 5.80444336 C34.41457516 5.7951568 37.71248414 5.75417012 41.01171875 5.70703125 C42.54792122 5.71293022 42.54792122 5.71293022 44.11515808 5.71894836 C50.08159871 5.64997048 50.08159871 5.64997048 54.99926758 2.45581055 C55.98963013 1.24018433 55.98963013 1.24018433 57 0 C57.99 0 58.98 0 60 0 C59.55990101 2.64059394 59.10504868 4.79573867 57.875 7.1875 C57.441875 8.0846875 57.441875 8.0846875 57 9 C57.495 9.99 57.495 9.99 58 11 C56.34385343 11.38218767 54.67542976 11.71395102 53 12 C52.505 11.505 52.505 11.505 52 11 C50.37325222 10.90659566 48.74245949 10.88254829 47.11303711 10.88647461 C45.55153175 10.88658791 45.55153175 10.88658791 43.95848083 10.88670349 C42.26006798 10.89444542 42.26006798 10.89444542 40.52734375 10.90234375 C39.37456436 10.9037587 38.22178497 10.90517365 37.03407288 10.90663147 C33.33518936 10.91224995 29.63636536 10.92480558 25.9375 10.9375 C23.43684983 10.94251262 20.93619871 10.94707594 18.43554688 10.95117188 C12.29034412 10.96222538 6.14517631 10.97898148 0 11 C-0.19406478 9.35492782 -0.38007935 7.70890406 -0.5625 6.0625 C-0.66691406 5.14597656 -0.77132812 4.22945313 -0.87890625 3.28515625 C-0.91886719 2.53105469 -0.95882812 1.77695313 -1 1 C-0.67 0.67 -0.34 0.34 0 0 Z " fill="#040404" transform="translate(90,92)"/>
<path d="M0 0 C-0.27839826 6.54235903 -2.62126728 11.12968399 -7 16 C-11.7639207 19.60852341 -14.95363677 21 -21 21 C-21 27.93 -21 34.86 -21 42 C-22.485 42.495 -22.485 42.495 -24 43 C-24.33 35.74 -24.66 28.48 -25 21 C-29.455 20.01 -29.455 20.01 -34 19 C-36.5625 16.875 -36.5625 16.875 -38 15 C-37.01 15 -36.02 15 -35 15 C-35 14.34 -35 13.68 -35 13 C-35.66 13 -36.32 13 -37 13 C-36.67 12.34 -36.34 11.68 -36 11 C-35.236875 11.66 -34.47375 12.32 -33.6875 13 C-29.15420342 16.03655495 -24.24100414 15.50845563 -19 15 C-13.88106721 13.95725443 -11.3571418 11.97556266 -8 8 C-7.24549987 6.76512609 -6.51616993 5.51452863 -5.8125 4.25 C-3.44230769 0 -3.44230769 0 0 0 Z " fill="#0F0F0F" transform="translate(94,102)"/>
<path d="M0 0 C4.0830942 -0.11614929 8.16576377 -0.18723457 12.25 -0.25 C13.40886719 -0.28351562 14.56773437 -0.31703125 15.76171875 -0.3515625 C16.87675781 -0.36445313 17.99179688 -0.37734375 19.140625 -0.390625 C20.16704102 -0.41157227 21.19345703 -0.43251953 22.25097656 -0.45410156 C25 0 25 0 27.33300781 1.55981445 C29.55506771 4.81252223 29.57622283 7.62609016 29.53125 11.43359375 C29.5350769 12.14854507 29.53890381 12.8634964 29.54284668 13.60011292 C29.54556259 15.10882987 29.53822364 16.61759417 29.52148438 18.1262207 C29.50009741 20.42702095 29.52127608 22.72468813 29.546875 25.02539062 C29.54423105 26.49479852 29.53910466 27.96420447 29.53125 29.43359375 C29.53934692 30.11707382 29.54744385 30.80055389 29.55578613 31.50474548 C29.46334117 36.25137345 28.28386383 38.61545166 25 42 C23.515 41.505 23.515 41.505 22 41 C22.15847412 40.49243164 22.31694824 39.98486328 22.48022461 39.46191406 C23.17169367 36.18677364 23.2343916 32.94303931 23.31640625 29.609375 C23.33718735 28.90476135 23.35796844 28.20014771 23.37937927 27.47418213 C23.44453837 25.23288319 23.50360248 22.99147136 23.5625 20.75 C23.60571726 19.22655103 23.64933257 17.70311329 23.69335938 16.1796875 C23.80093115 12.45323881 23.9002535 8.7266992 24 5 C16.74 5 9.48 5 2 5 C2 4.67 2 4.34 2 4 C12.395 3.505 12.395 3.505 23 3 C23.33 2.34 23.66 1.68 24 1 C16.08 1 8.16 1 0 1 C0 0.67 0 0.34 0 0 Z " fill="#222222" transform="translate(130,18)"/>
<path d="M0 0 C-0.27854305 6.54576173 -2.62451838 11.12420343 -7 16 C-9.81800933 18.17912848 -12.57862864 19.96466328 -16 21 C-18.77734375 20.6171875 -18.77734375 20.6171875 -21 20 C-21 19.34 -21 18.68 -21 18 C-23.31 17.67 -25.62 17.34 -28 17 C-28 16.67 -28 16.34 -28 16 C-26.57107422 15.85304688 -26.57107422 15.85304688 -25.11328125 15.703125 C-23.85902344 15.55359375 -22.60476562 15.4040625 -21.3125 15.25 C-20.07113281 15.11078125 -18.82976562 14.9715625 -17.55078125 14.828125 C-12.72897582 13.70356752 -10.17876239 11.8123091 -7.48828125 7.67578125 C-7.10027344 6.89589844 -6.71226563 6.11601563 -6.3125 5.3125 C-3.64320786 0 -3.64320786 0 0 0 Z " fill="#232323" transform="translate(94,102)"/>
<path d="M0 0 C0.33 0 0.66 0 1 0 C1.01458252 0.76143311 1.02916504 1.52286621 1.04418945 2.30737305 C1.11880541 5.76791888 1.21542259 9.22751445 1.3125 12.6875 C1.33505859 13.88568359 1.35761719 15.08386719 1.38085938 16.31835938 C1.41630859 17.47529297 1.45175781 18.63222656 1.48828125 19.82421875 C1.51446533 20.88729248 1.54064941 21.95036621 1.56762695 23.0456543 C2.33701769 28.30279566 5.20489023 31.46662194 9 35 C7.02 35.66 5.04 36.32 3 37 C2.0158875 35.73299277 1.03788503 34.4612381 0.0625 33.1875 C-0.48277344 32.47980469 -1.02804688 31.77210938 -1.58984375 31.04296875 C-3.88068055 27.72411101 -4.12140645 25.03206435 -4.09765625 21.11328125 C-4.09443359 20.17548828 -4.09121094 19.23769531 -4.08789062 18.27148438 C-4.07532227 16.80678711 -4.07532227 16.80678711 -4.0625 15.3125 C-4.05798828 14.32443359 -4.05347656 13.33636719 -4.04882812 12.31835938 C-4.03704303 9.87884526 -4.02059011 7.43945311 -4 5 C-3.67 5 -3.34 5 -3 5 C-2.67 10.28 -2.34 15.56 -2 21 C-1.34 21 -0.68 21 0 21 C0 14.07 0 7.14 0 0 Z " fill="#2C2C2C" transform="translate(73,123)"/>
<path d="M0 0 C0 0.99 0 1.98 0 3 C12.54 3 25.08 3 38 3 C38 3.33 38 3.66 38 4 C36.05565063 4.00616333 36.05565063 4.00616333 34.07202148 4.01245117 C29.24284612 4.03429418 24.41447954 4.08863798 19.58569336 4.15258789 C17.49950945 4.17572277 15.41320949 4.19015298 13.3269043 4.19555664 C10.32006895 4.20487905 7.31504754 4.24594226 4.30859375 4.29296875 C2.91911781 4.28706978 2.91911781 4.28706978 1.50157166 4.28105164 C-4.91575108 4.42423466 -8.12210152 5.80518245 -13 10 C-13.99 9.34 -14.98 8.68 -16 8 C-12.49956 -0.16769333 -8.27191282 -0.56829935 0 0 Z " fill="#4A4A4A" transform="translate(88,38)"/>
<path d="M0 0 C2.95409701 1.37154504 5.44008376 2.98863724 8 5 C7.8125 7.3125 7.8125 7.3125 7 10 C4.10451959 12.20970874 2.66842255 13 -1 13 C-3.00338705 14.58668031 -3.00338705 14.58668031 -5.01171875 16.71875 C-5.76904297 17.48574219 -6.52636719 18.25273438 -7.30664062 19.04296875 C-8.09232422 19.85378906 -8.87800781 20.66460937 -9.6875 21.5 C-10.48478516 22.31082031 -11.28207031 23.12164062 -12.10351562 23.95703125 C-14.0758748 25.96482203 -16.04091492 27.9792687 -18 30 C-18.99 29.67 -19.98 29.34 -21 29 C-20.67 28.34 -20.34 27.68 -20 27 C-17.9375 26.375 -17.9375 26.375 -16 26 C-16 25.34 -16 24.68 -16 24 C-14.56640625 22.58984375 -14.56640625 22.58984375 -12.5625 20.9375 C-11.84320313 20.31617187 -11.12390625 19.69484375 -10.3828125 19.0546875 C-8.73780279 17.63620371 -7.08633357 16.22518865 -5.4296875 14.8203125 C-0.82762736 10.96589541 -0.82762736 10.96589541 1.34375 5.6484375 C1.09652217 3.1975268 1.09652217 3.1975268 0 0 Z " fill="#161616" transform="translate(187,93)"/>
<path d="M0 0 C0.66 0.33 1.32 0.66 2 1 C-0.36322105 6.43909855 -4.75547305 10.1639623 -8.875 14.3125 C-9.69097656 15.16134766 -10.50695312 16.01019531 -11.34765625 16.88476562 C-12.13785156 17.68205078 -12.92804688 18.47933594 -13.7421875 19.30078125 C-14.4626123 20.03466064 -15.18303711 20.76854004 -15.92529297 21.5246582 C-18 23 -18 23 -20.18798828 22.85229492 C-22.6233101 21.70682086 -23.09597038 20.48608145 -24 18 C-24 17.34 -24 16.68 -24 16 C-23.01 16 -22.02 16 -21 16 C-21 16.66 -21 17.32 -21 18 C-17.22531329 17.43379699 -15.52448107 15.87731019 -12.890625 13.18359375 C-11.75947266 12.03793945 -11.75947266 12.03793945 -10.60546875 10.86914062 C-9.82816406 10.06669922 -9.05085937 9.26425781 -8.25 8.4375 C-7.45722656 7.63119141 -6.66445312 6.82488281 -5.84765625 5.99414062 C-3.89152954 4.00266222 -1.94274281 2.00452279 0 0 Z " fill="#0A0A0A" transform="translate(187,104)"/>
<path d="M0 0 C0.99 0.33 1.98 0.66 3 1 C2.14189314 5.59059328 -0.58803212 8.06740833 -3.8125 11.25 C-4.34681641 11.80429688 -4.88113281 12.35859375 -5.43164062 12.9296875 C-9.50696583 17 -9.50696583 17 -14 17 C-13.73126258 12.43146383 -11.82727008 10.23583414 -8.6328125 7.2265625 C-6.50186155 5.6258003 -4.64285955 5.15546233 -2 5 C-1.855625 4.360625 -1.71125 3.72125 -1.5625 3.0625 C-1 1 -1 1 0 0 Z " fill="#222222" transform="translate(38,183)"/>
<path d="M0 0 C3.56764821 0.57619097 5.25159497 1.86969484 7.75 4.4375 C8.67039062 5.36369141 8.67039062 5.36369141 9.609375 6.30859375 C11 8 11 8 11 10 C10.34 10.66 9.68 11.32 9 12 C9 12.33 9 12.66 9 13 C-0.57 13 -10.14 13 -20 13 C-20 12.67 -20 12.34 -20 12 C-11.42 11.67 -2.84 11.34 6 11 C3.69 8.69 1.38 6.38 -1 4 C-0.67 2.68 -0.34 1.36 0 0 Z " fill="#313131" transform="translate(25,171)"/>
<path d="M0 0 C0.99 0.33 1.98 0.66 3 1 C3 10.9 3 20.8 3 31 C2.01 30.34 1.02 29.68 0 29 C-0.34057617 26.11083984 -0.34057617 26.11083984 -0.29296875 22.4609375 C-0.28330078 21.15898437 -0.27363281 19.85703125 -0.26367188 18.515625 C-0.23860388 17.13541077 -0.21320902 15.75520244 -0.1875 14.375 C-0.17245517 12.98699337 -0.15876641 11.59897133 -0.14648438 10.2109375 C-0.1110257 6.80690491 -0.06160298 3.40364378 0 0 Z " fill="#010101" transform="translate(155,147)"/>
<path d="M0 0 C9.24 0 18.48 0 28 0 C28 0.99 28 1.98 28 3 C28.33 3.99 28.66 4.98 29 6 C25.82679218 9.53586014 23.83256305 11.58578031 19 12 C20 8 20 8 26 2 C13.13 1.505 13.13 1.505 0 1 C0 0.67 0 0.34 0 0 Z " fill="#2E2E2E" transform="translate(5,16)"/>
<path d="M0 0 C0.66 0.33 1.32 0.66 2 1 C1.01 2.485 1.01 2.485 0 4 C0 4.99 0 5.98 0 7 C-1.62339805 8.70884005 -3.29319053 10.37446717 -5 12 C-5.99 13.485 -5.99 13.485 -7 15 C-7.99 14.67 -8.98 14.34 -10 14 C-10.66 15.65 -11.32 17.3 -12 19 C-13.17599358 16.22037882 -13.02589629 15.07283331 -12 12.1875 C-8.85434287 7.17410895 -4.91822036 3.27881357 0 0 Z " fill="#262626" transform="translate(61,78)"/>
<path d="M0 0 C2 1 2 1 2 1 Z M-1 1 C1.21336414 4.32004621 1.20762974 5.07410932 0.9765625 8.88671875 C0.925 9.82451172 0.8734375 10.76230469 0.8203125 11.72851562 C0.75585938 12.70498047 0.69140625 13.68144531 0.625 14.6875 C0.56828125 15.67556641 0.5115625 16.66363281 0.453125 17.68164062 C0.31166481 20.12182885 0.16025726 22.56098591 0 25 C-0.99 25.33 -1.98 25.66 -3 26 C-3.19461488 23.06281233 -3.38097593 20.12550068 -3.5625 17.1875 C-3.61857422 16.35412109 -3.67464844 15.52074219 -3.73242188 14.66210938 C-3.78076172 13.85966797 -3.82910156 13.05722656 -3.87890625 12.23046875 C-3.9260376 11.49207764 -3.97316895 10.75368652 -4.02172852 9.99291992 C-4 8 -4 8 -3 5 C-2.34 5 -1.68 5 -1 5 C-1 3.68 -1 2.36 -1 1 Z " fill="#000000" transform="translate(73,119)"/>
<path d="M0 0 C7.59 0 15.18 0 23 0 C22.67 0.99 22.34 1.98 22 3 C14.74 3 7.48 3 0 3 C0 2.01 0 1.02 0 0 Z " fill="#010101" transform="translate(131,19)"/>
<path d="M0 0 C5.10327317 2.69339417 9.03502997 6.46235718 11 12 C10.625 14.25 10.625 14.25 10 16 C10 15.01 10 14.02 10 13 C9.2575 13.12375 8.515 13.2475 7.75 13.375 C6.8425 13.25125 5.935 13.1275 5 13 C2.875 10.1875 2.875 10.1875 1 7 C-0.62351109 5.20605554 -0.62351109 5.20605554 -2 4 C-0.68 3.67 0.64 3.34 2 3 C1.34 2.67 0.68 2.34 0 2 C0 1.34 0 0.68 0 0 Z " fill="#1D1D1D" transform="translate(83,80)"/>
<path d="M0 0 C3.59905908 0.55550695 4.99909799 1.74887248 7.25 4.5625 C7.77078125 5.20316406 8.2915625 5.84382812 8.828125 6.50390625 C9.21484375 6.99761719 9.6015625 7.49132812 10 8 C8.68 8.99 7.36 9.98 6 11 C4.79794536 9.93283928 3.61367667 8.84561663 2.4375 7.75 C1.77621094 7.14671875 1.11492188 6.5434375 0.43359375 5.921875 C-1 4 -1 4 -0.71484375 1.765625 C-0.47894531 1.18296875 -0.24304688 0.6003125 0 0 Z " fill="#191919" transform="translate(25,0)"/>
<path d="M0 0 C-0.4682121 4.77576339 -1.24331998 8.04476345 -4 12 C-5.65 11.67 -7.3 11.34 -9 11 C-8.21572648 9.35063087 -7.42234741 7.70558873 -6.625 6.0625 C-6.18414062 5.14597656 -5.74328125 4.22945313 -5.2890625 3.28515625 C-3.77251613 0.59673314 -3.08231022 0 0 0 Z " fill="#151515" transform="translate(94,102)"/>
<path d="M0 0 C4.29154022 -0.0867562 8.58285668 -0.1403089 12.875 -0.1875 C14.70998047 -0.22520508 14.70998047 -0.22520508 16.58203125 -0.26367188 C18.33193359 -0.27817383 18.33193359 -0.27817383 20.1171875 -0.29296875 C21.73536377 -0.31653442 21.73536377 -0.31653442 23.38623047 -0.34057617 C24.68004639 -0.17199097 24.68004639 -0.17199097 26 0 C26.66 0.99 27.32 1.98 28 3 C27.01 3.33 26.02 3.66 25 4 C24.34 3.34 23.68 2.68 23 2 C20.67182795 1.72234584 20.67182795 1.72234584 17.9921875 1.8046875 C17.00605469 1.81113281 16.01992187 1.81757813 15.00390625 1.82421875 C13.97136719 1.84097656 12.93882812 1.85773438 11.875 1.875 C10.83472656 1.88402344 9.79445312 1.89304688 8.72265625 1.90234375 C6.14820908 1.92596253 3.57421788 1.95889851 1 2 C0.67 2.66 0.34 3.32 0 4 C-0.66 4 -1.32 4 -2 4 C-1.34 2.68 -0.68 1.36 0 0 Z " fill="#1D1D1D" transform="translate(129,140)"/>
<path d="M0 0 C0.33 0.66 0.66 1.32 1 2 C1.99 2 2.98 2 4 2 C4 1.34 4 0.68 4 0 C4.99 0.33 5.98 0.66 7 1 C6.52949219 1.39832031 6.05898437 1.79664062 5.57421875 2.20703125 C4.95160156 2.73683594 4.32898438 3.26664062 3.6875 3.8125 C3.07261719 4.33457031 2.45773438 4.85664062 1.82421875 5.39453125 C0.14575321 6.87172469 -1.43882034 8.40039131 -3 10 C-3 8.68 -3 7.36 -3 6 C-3.66 5.67 -4.32 5.34 -5 5 C-3.35 3.35 -1.7 1.7 0 0 Z " fill="#1C1C1C" transform="translate(153,86)"/>
<path d="M0 0 C2.37948772 0.17625835 3.70225849 0.69719773 5.37890625 2.40234375 C6.62115486 3.90649092 7.81376056 5.45129851 9 7 C2.58131488 7.3633218 2.58131488 7.3633218 0 5.75 C-1 4 -1 4 -0.6875 1.8125 C-0.460625 1.214375 -0.23375 0.61625 0 0 Z " fill="#202020" transform="translate(25,171)"/>
<path d="M0 0 C0.99 0.33 1.98 0.66 3 1 C2.34 3.97 1.68 6.94 1 10 C0.01 9.67 -0.98 9.34 -2 9 C-2.125 5.625 -2.125 5.625 -2 2 C-1.34 1.34 -0.68 0.68 0 0 Z " fill="#070707" transform="translate(72,46)"/>
<path d="M0 0 C0.66 0.33 1.32 0.66 2 1 C1.01 2.32 0.02 3.64 -1 5 C-0.34 5.66 0.32 6.32 1 7 C-0.32 7.99 -1.64 8.98 -3 10 C-3.99 9.34 -4.98 8.68 -6 8 C-4.55746343 4.63408134 -2.66735273 2.48952921 0 0 Z " fill="#2D2D2D" transform="translate(78,38)"/>
<path d="M0 0 C0.66 0.33 1.32 0.66 2 1 C-1.63 4.63 -5.26 8.26 -9 12 C-9.99 11.67 -10.98 11.34 -12 11 C-11.67 10.34 -11.34 9.68 -11 9 C-8.9375 8.375 -8.9375 8.375 -7 8 C-7 7.34 -7 6.68 -7 6 C-5.46875 4.4921875 -5.46875 4.4921875 -3.5 2.875 C-2.8503125 2.33617188 -2.200625 1.79734375 -1.53125 1.2421875 C-0.77328125 0.62730469 -0.77328125 0.62730469 0 0 Z " fill="#272727" transform="translate(178,111)"/>
<path d="M0 0 C3.057952 1.73559438 5.63379989 3.38472619 8 6 C7.67 6.66 7.34 7.32 7 8 C2.72290301 8 1.44069624 7.29379749 -2 5 C-0.68 4.34 0.64 3.68 2 3 C1.34 2.67 0.68 2.34 0 2 C0 1.34 0 0.68 0 0 Z " fill="#383838" transform="translate(83,80)"/>
<path d="M0 0 C0.66 0.66 1.32 1.32 2 2 C-0.66666667 4.66666667 -3.33333333 7.33333333 -6 10 C-6.99 9.67 -7.98 9.34 -9 9 C-6.03 6.03 -3.06 3.06 0 0 Z " fill="#F0F0F0" transform="translate(37,190)"/>
<path d="M0 0 C-0.3125 2.375 -0.3125 2.375 -1 5 C-1.99 5.66 -2.98 6.32 -4 7 C-4.66 5.68 -5.32 4.36 -6 3 C-3.375 0 -3.375 0 0 0 Z " fill="#0B0B0B" transform="translate(150,92)"/>
<path d="M0 0 C0.66 0.66 1.32 1.32 2 2 C1.30132812 1.97679688 0.60265625 1.95359375 -0.1171875 1.9296875 C-1.48230469 1.90261719 -1.48230469 1.90261719 -2.875 1.875 C-3.77992187 1.85179688 -4.68484375 1.82859375 -5.6171875 1.8046875 C-8.18806994 1.75675164 -8.18806994 1.75675164 -10 4 C-13 4 -13 4 -15 3 C-10.45092587 -0.63925931 -5.59826237 -0.76294903 0 0 Z " fill="#A2A2A2" transform="translate(76,81)"/>
<path d="M0 0 C2.97 1.98 2.97 1.98 6 4 C3.35261084 5.4606285 2.10551666 6 -1 6 C-0.67 4.02 -0.34 2.04 0 0 Z " fill="#1E1E1E" transform="translate(76,153)"/>
<path d="M0 0 C0.33 1.32 0.66 2.64 1 4 C1.99 4.33 2.98 4.66 4 5 C3.01 6.32 2.02 7.64 1 9 C0.01 8.67 -0.98 8.34 -2 8 C-1.34 5.36 -0.68 2.72 0 0 Z " fill="#161616" transform="translate(154,51)"/>
<path d="M0 0 C0.99 0.33 1.98 0.66 3 1 C2.25 2.9375 2.25 2.9375 1 5 C-1.125 5.75 -1.125 5.75 -3 6 C-3.33 5.34 -3.66 4.68 -4 4 C-3.34 4 -2.68 4 -2 4 C-1.34 2.68 -0.68 1.36 0 0 Z " fill="#161616" transform="translate(32,190)"/>
<path d="M0 0 C0.66 0.33 1.32 0.66 2 1 C1.01 2.485 1.01 2.485 0 4 C0 4.99 0 5.98 0 7 C-0.99 7.495 -0.99 7.495 -2 8 C-2.99 6.68 -3.98 5.36 -5 4 C-3.35 2.68 -1.7 1.36 0 0 Z " fill="#2B2B2B" transform="translate(61,78)"/>
<path d="M0 0 C1.9375 0.8125 1.9375 0.8125 4 2 C4.33 2.99 4.66 3.98 5 5 C4.01 5.99 3.02 6.98 2 8 C1.01 6.68 0.02 5.36 -1 4 C-0.34 4 0.32 4 1 4 C1.33 3.34 1.66 2.68 2 2 C1.01 1.67 0.02 1.34 -1 1 C-0.67 0.67 -0.34 0.34 0 0 Z " fill="#1B1B1B" transform="translate(160,115)"/>
<path d="M0 0 C0 2.62113708 -0.31292445 4.50935112 -1 7 C-2.98 7.33 -4.96 7.66 -7 8 C-6.02133662 6.85373678 -5.04205413 5.70800212 -4.0625 4.5625 C-3.51722656 3.92441406 -2.97195312 3.28632812 -2.41015625 2.62890625 C-1.63204305 1.73008851 -0.84063472 0.84063472 0 0 Z " fill="#C9C9C9" transform="translate(191,104)"/>
<path d="M0 0 C1.65 1.65 3.3 3.3 5 5 C3.68 5.99 2.36 6.98 1 8 C-1 5 -1 5 -0.625 2.3125 C-0.41875 1.549375 -0.2125 0.78625 0 0 Z " fill="#272727" transform="translate(30,3)"/>
<path d="M0 0 C1.98 0.495 1.98 0.495 4 1 C2.84826645 3.46800047 1.95216435 5.04783565 0 7 C-0.93423645 3.98968256 -1.04449911 3.13349732 0 0 Z " fill="#101010" transform="translate(55,83)"/>
<path d="M0 0 C0.66 0.33 1.32 0.66 2 1 C1.25 2.9375 1.25 2.9375 0 5 C-2.125 5.75 -2.125 5.75 -4 6 C-3.34 4.68 -2.68 3.36 -2 2 C-1.34 2 -0.68 2 0 2 C0 1.34 0 0.68 0 0 Z " fill="#070707" transform="translate(29,22)"/>
<path d="M0 0 C2 0.3125 2 0.3125 4 1 C4.33 1.66 4.66 2.32 5 3 C3.35 3.66 1.7 4.32 0 5 C-0.5625 3.0625 -0.5625 3.0625 -1 1 C-0.67 0.67 -0.34 0.34 0 0 Z " fill="#303030" transform="translate(25,171)"/>
<path d="M0 0 C0.66 0.99 1.32 1.98 2 3 C-1 5 -1 5 -3.6875 4.625 C-4.450625 4.41875 -5.21375 4.2125 -6 4 C-5.38125 3.71125 -4.7625 3.4225 -4.125 3.125 C-1.86674235 2.06279958 -1.86674235 2.06279958 0 0 Z " fill="#BDBDBD" transform="translate(30,25)"/>
</svg>
